<svg width="800" height="329" viewBox="0 0 800 329" fill="none" xmlns="http://www.w3.org/2000/svg">
<rect width="800" height="329" fill="#1E1E1E"/>
<rect width="800" height="329" fill="#2A2A2A"/>
<path d="M26.3662 24L253.435 24.02L300.556 24.0999L372.43 24.0899C372.581 24.0899 372.726 24.1498 372.833 24.2566C372.94 24.3633 373 24.5081 373 24.6591V303.511C373 303.572 372.988 303.633 372.964 303.69C372.941 303.747 372.906 303.799 372.862 303.843C372.819 303.886 372.767 303.921 372.71 303.944C372.653 303.968 372.592 303.98 372.53 303.98L253.395 304L26.0462 303.99L95.4589 163.8C95.6056 163.507 95.6056 163.211 95.4589 162.912C72.498 116.837 49.4804 70.7798 26.4062 24.7389C26.3729 24.679 26.3295 24.6224 26.2762 24.5692C26.2029 24.5093 26.1329 24.446 26.0662 24.3795C25.9662 24.2729 25.9795 24.1797 26.1062 24.0999C26.1862 24.0466 26.2729 24.0133 26.3662 24ZM183.392 177.191L171.552 173.357C171.225 173.25 171.019 173.363 170.932 173.696C168.642 182.813 162.162 188.835 152.311 186.308C146.784 184.897 143.221 181.189 141.621 175.184C139.371 166.786 139.461 153.815 144.771 147.104C151.971 137.987 167.312 140.454 170.432 152.357C170.545 152.783 170.819 152.956 171.252 152.876L183.162 150.639C183.442 150.586 183.552 150.419 183.492 150.14C180.812 138.746 172.532 131.986 161.082 130.538C146.101 128.65 132.63 136.939 128.43 151.748C123.76 168.174 127.25 187.496 143.871 195.425C147.051 196.943 151.228 197.755 156.401 197.862C171.392 198.191 179.232 191.241 183.752 177.9C183.872 177.541 183.752 177.304 183.392 177.191ZM204.123 169.742C209.303 169.482 214.674 169.342 218.094 174.026C223.394 181.282 228.391 188.665 233.084 196.174C233.228 196.406 233.428 196.597 233.666 196.73C233.904 196.863 234.172 196.933 234.444 196.933L248.885 196.913C248.95 196.912 249.013 196.893 249.069 196.86C249.124 196.827 249.17 196.779 249.201 196.723C249.233 196.666 249.249 196.602 249.248 196.537C249.246 196.473 249.228 196.409 249.195 196.354C245.982 191.168 242.688 185.962 239.315 180.736C235.775 175.251 231.944 171.113 227.824 168.324C227.471 168.084 227.498 167.911 227.904 167.805C234.534 166.007 239.475 164.429 242.805 157.389C244.685 153.402 244.822 148.772 243.215 143.499C240.815 135.651 233.364 131.916 225.434 131.776C213.96 131.57 202.47 131.54 190.963 131.686C190.589 131.693 190.403 131.879 190.403 132.245V196.414C190.403 196.747 190.573 196.913 190.913 196.913H203.293C203.391 196.913 203.485 196.873 203.555 196.802C203.624 196.731 203.663 196.634 203.663 196.534V170.231C203.663 169.925 203.817 169.762 204.123 169.742ZM265.166 143.369C265.166 143.269 265.206 143.172 265.277 143.101C265.348 143.03 265.445 142.99 265.546 142.99H300.287C300.388 142.99 300.485 142.95 300.556 142.879C300.627 142.808 300.667 142.711 300.667 142.611V132.006C300.667 131.905 300.627 131.809 300.556 131.737C300.485 131.666 300.388 131.626 300.287 131.626H252.325C252.224 131.626 252.128 131.666 252.056 131.737C251.985 131.809 251.945 131.905 251.945 132.006V196.534C251.945 196.634 251.985 196.731 252.056 196.802C252.128 196.873 252.224 196.913 252.325 196.913H301.567C301.668 196.913 301.765 196.873 301.836 196.802C301.907 196.731 301.947 196.634 301.947 196.534L301.917 186.148C301.917 186.048 301.877 185.951 301.806 185.88C301.735 185.809 301.638 185.769 301.537 185.769L265.536 185.799C265.435 185.799 265.338 185.759 265.267 185.688C265.196 185.617 265.156 185.52 265.156 185.419L265.166 168.793C265.166 168.693 265.206 168.596 265.277 168.525C265.348 168.454 265.445 168.414 265.546 168.414H297.637C297.738 168.414 297.834 168.374 297.906 168.303C297.977 168.231 298.017 168.135 298.017 168.034L298.007 157.35C298.007 157.249 297.967 157.152 297.896 157.081C297.824 157.01 297.728 156.97 297.627 156.97H265.536C265.435 156.97 265.338 156.93 265.267 156.859C265.196 156.788 265.156 156.691 265.156 156.591L265.166 143.369ZM307.837 132.395L308.057 196.264C308.06 196.477 308.147 196.68 308.298 196.829C308.45 196.979 308.654 197.063 308.867 197.063L335.659 196.973C339.237 196.961 342.778 196.237 346.079 194.842C349.38 193.446 352.377 191.407 354.898 188.84C357.42 186.273 359.416 183.229 360.774 179.882C362.131 176.535 362.823 172.95 362.81 169.332L362.77 158.927C362.743 151.625 359.849 144.632 354.723 139.486C349.598 134.34 342.661 131.463 335.439 131.486L308.647 131.576C308.54 131.576 308.434 131.598 308.335 131.639C308.236 131.68 308.146 131.741 308.071 131.817C307.996 131.893 307.936 131.983 307.896 132.083C307.856 132.182 307.836 132.288 307.837 132.395Z" fill="#535353"/>
<path d="M774.566 97.06C774.566 102.924 772.237 108.548 768.09 112.694C763.944 116.841 758.32 119.17 752.456 119.17C746.592 119.17 740.969 116.841 736.822 112.694C732.676 108.548 730.346 102.924 730.346 97.06C730.346 91.1961 732.676 85.5723 736.822 81.4259C740.969 77.2795 746.592 74.95 752.456 74.95C758.32 74.95 763.944 77.2795 768.09 81.4259C772.237 85.5723 774.566 91.1961 774.566 97.06ZM772.096 97.06C772.096 91.8485 770.026 86.8504 766.341 83.1654C762.656 79.4803 757.658 77.41 752.446 77.41C747.235 77.41 742.237 79.4803 738.552 83.1654C734.866 86.8504 732.796 91.8485 732.796 97.06C732.796 102.272 734.866 107.27 738.552 110.955C742.237 114.64 747.235 116.71 752.446 116.71C757.658 116.71 762.656 114.64 766.341 110.955C770.026 107.27 772.096 102.272 772.096 97.06Z" fill="white"/>
<path d="M772.096 97.06C772.096 102.272 770.026 107.27 766.341 110.955C762.656 114.64 757.658 116.71 752.446 116.71C747.235 116.71 742.237 114.64 738.551 110.955C734.866 107.27 732.796 102.272 732.796 97.06C732.796 91.8485 734.866 86.8504 738.551 83.1654C742.237 79.4803 747.235 77.41 752.446 77.41C757.658 77.41 762.656 79.4803 766.341 83.1654C770.026 86.8504 772.096 91.8485 772.096 97.06ZM745.686 92.36C745.686 92.2619 745.725 92.1678 745.794 92.0984C745.864 92.029 745.958 91.99 746.056 91.99L749.786 92.01C749.884 92.01 749.978 91.971 750.048 91.9016C750.117 91.8322 750.156 91.7381 750.156 91.64V89.76C750.156 89.6619 750.117 89.5678 750.048 89.4984C749.978 89.429 749.884 89.39 749.786 89.39H738.616C738.567 89.39 738.518 89.3999 738.472 89.4191C738.427 89.4383 738.385 89.4665 738.351 89.5019C738.316 89.5373 738.289 89.5793 738.271 89.6253C738.253 89.6714 738.245 89.7206 738.246 89.77L738.276 91.61C738.279 91.7064 738.319 91.7979 738.388 91.8652C738.457 91.9324 738.55 91.97 738.646 91.97L742.366 91.99C742.464 91.99 742.558 92.029 742.628 92.0984C742.697 92.1678 742.736 92.2619 742.736 92.36L742.706 103.8C742.706 103.898 742.745 103.992 742.814 104.062C742.884 104.131 742.978 104.17 743.076 104.17L745.356 104.15C745.454 104.15 745.548 104.111 745.618 104.042C745.687 103.972 745.726 103.878 745.726 103.78L745.686 92.36ZM763.666 94.59C763.933 97.61 763.999 100.633 763.866 103.66C763.853 104.007 764.019 104.18 764.366 104.18L766.336 104.14C766.603 104.14 766.736 104.003 766.736 103.73L766.706 89.92C766.706 89.56 766.526 89.38 766.166 89.38L762.896 89.4C762.529 89.4067 762.299 89.5867 762.206 89.94L759.886 98.64C759.706 99.3133 759.526 99.3133 759.346 98.64L757.026 89.91C756.933 89.5633 756.706 89.39 756.346 89.39L752.906 89.4C752.573 89.4067 752.406 89.5767 752.406 89.91V103.66C752.406 103.993 752.573 104.16 752.906 104.16H754.616C754.923 104.16 755.076 104.007 755.076 103.7L755.126 93.66C755.126 93.5667 755.176 93.5233 755.276 93.53H755.536C755.563 93.53 755.579 93.5433 755.586 93.57C756.313 96.89 757.083 100.2 757.896 103.5C757.956 103.753 758.109 103.923 758.356 104.01C760.163 104.65 761.259 104.13 761.646 102.45C762.246 99.81 762.836 97.1833 763.416 94.57C763.529 94.05 763.613 94.0567 763.666 94.59Z" fill="#1E1E1E"/>
<path d="M745.686 92.36L745.726 103.78C745.726 103.878 745.687 103.972 745.618 104.042C745.548 104.111 745.454 104.15 745.356 104.15L743.076 104.17C742.978 104.17 742.884 104.131 742.815 104.062C742.745 103.992 742.706 103.898 742.706 103.8L742.736 92.36C742.736 92.2619 742.697 92.1678 742.628 92.0984C742.558 92.029 742.464 91.99 742.366 91.99L738.646 91.97C738.55 91.97 738.457 91.9324 738.388 91.8652C738.319 91.798 738.279 91.7064 738.276 91.61L738.246 89.77C738.245 89.7206 738.253 89.6714 738.271 89.6253C738.289 89.5793 738.317 89.5373 738.351 89.5019C738.385 89.4665 738.427 89.4383 738.472 89.4191C738.518 89.3999 738.567 89.39 738.616 89.39H749.786C749.884 89.39 749.978 89.429 750.048 89.4984C750.117 89.5678 750.156 89.6619 750.156 89.76V91.64C750.156 91.7381 750.117 91.8323 750.048 91.9016C749.978 91.971 749.884 92.01 749.786 92.01L746.056 91.99C745.958 91.99 745.864 92.029 745.795 92.0984C745.725 92.1678 745.686 92.2619 745.686 92.36Z" fill="white"/>
<path d="M763.416 94.57C762.836 97.1833 762.246 99.81 761.646 102.45C761.259 104.13 760.163 104.65 758.356 104.01C758.109 103.923 757.956 103.753 757.896 103.5C757.083 100.2 756.313 96.89 755.586 93.57C755.579 93.5433 755.563 93.53 755.536 93.53H755.276C755.176 93.5233 755.126 93.5667 755.126 93.66L755.076 103.7C755.076 104.007 754.923 104.16 754.616 104.16H752.906C752.573 104.16 752.406 103.993 752.406 103.66V89.91C752.406 89.5767 752.573 89.4067 752.906 89.4L756.346 89.39C756.706 89.39 756.933 89.5633 757.026 89.91L759.346 98.64C759.526 99.3133 759.706 99.3133 759.886 98.64L762.206 89.94C762.299 89.5867 762.529 89.4067 762.896 89.4L766.166 89.38C766.526 89.38 766.706 89.56 766.706 89.92L766.736 103.73C766.736 104.003 766.603 104.14 766.336 104.14L764.366 104.18C764.019 104.18 763.853 104.007 763.866 103.66C763.999 100.633 763.933 97.61 763.666 94.59C763.613 94.0567 763.529 94.05 763.416 94.57Z" fill="white"/>
<path d="M171.64 173.41L183.48 177.25C183.84 177.363 183.96 177.6 183.84 177.96C179.32 191.32 171.48 198.28 156.49 197.95C151.317 197.843 147.14 197.03 143.96 195.51C127.34 187.57 123.85 168.22 128.52 151.77C132.72 136.94 146.19 128.64 161.17 130.53C172.62 131.98 180.9 138.75 183.58 150.16C183.64 150.44 183.53 150.607 183.25 150.66L171.34 152.9C170.907 152.98 170.633 152.807 170.52 152.38C167.4 140.46 152.06 137.99 144.86 147.12C139.55 153.84 139.46 166.83 141.71 175.24C143.31 181.253 146.873 184.967 152.4 186.38C162.25 188.91 168.73 182.88 171.02 173.75C171.107 173.417 171.313 173.303 171.64 173.41Z" fill="white"/>
<path d="M203.75 170.28V196.62C203.75 196.721 203.711 196.817 203.642 196.889C203.572 196.96 203.478 197 203.38 197H191C190.66 197 190.49 196.833 190.49 196.5V132.24C190.49 131.873 190.677 131.687 191.05 131.68C202.557 131.533 214.047 131.563 225.52 131.77C233.45 131.91 240.9 135.65 243.3 143.51C244.907 148.79 244.77 153.427 242.89 157.42C239.56 164.47 234.62 166.05 227.99 167.85C227.583 167.957 227.557 168.13 227.91 168.37C232.03 171.163 235.86 175.307 239.4 180.8C242.773 186.033 246.067 191.247 249.28 196.44C249.313 196.496 249.331 196.559 249.332 196.624C249.334 196.689 249.318 196.753 249.286 196.809C249.255 196.866 249.209 196.913 249.154 196.947C249.098 196.98 249.035 196.999 248.97 197L234.53 197.02C234.257 197.02 233.989 196.95 233.751 196.817C233.513 196.684 233.313 196.492 233.17 196.26C228.477 188.74 223.48 181.347 218.18 174.08C214.76 169.39 209.39 169.53 204.21 169.79C203.903 169.81 203.75 169.973 203.75 170.28ZM203.71 143.34L203.79 157.98C203.79 158.057 203.821 158.131 203.875 158.185C203.929 158.239 204.003 158.27 204.08 158.27L222.78 158.17C224.851 158.158 226.832 157.399 228.289 156.058C229.747 154.717 230.56 152.905 230.55 151.02V150.02C230.545 149.086 230.338 148.162 229.941 147.301C229.544 146.44 228.965 145.659 228.236 145.003C227.507 144.346 226.643 143.827 225.693 143.475C224.743 143.123 223.726 142.944 222.7 142.95L204 143.05C203.962 143.05 203.924 143.057 203.889 143.072C203.854 143.087 203.822 143.108 203.795 143.135C203.768 143.162 203.747 143.194 203.732 143.229C203.718 143.264 203.71 143.302 203.71 143.34Z" fill="white"/>
<path d="M265.25 143.38L265.24 156.62C265.24 156.721 265.28 156.817 265.351 156.889C265.423 156.96 265.519 157 265.62 157H297.71C297.811 157 297.907 157.04 297.979 157.111C298.05 157.183 298.09 157.279 298.09 157.38L298.1 168.08C298.1 168.181 298.06 168.277 297.989 168.349C297.917 168.42 297.821 168.46 297.72 168.46H265.63C265.529 168.46 265.433 168.5 265.361 168.571C265.29 168.643 265.25 168.739 265.25 168.84L265.24 185.49C265.24 185.591 265.28 185.687 265.351 185.759C265.423 185.83 265.519 185.87 265.62 185.87L301.62 185.84C301.721 185.84 301.817 185.88 301.889 185.951C301.96 186.023 302 186.119 302 186.22L302.03 196.62C302.03 196.721 301.99 196.817 301.919 196.889C301.847 196.96 301.751 197 301.65 197H252.41C252.309 197 252.213 196.96 252.141 196.889C252.07 196.817 252.03 196.721 252.03 196.62V132C252.03 131.899 252.07 131.803 252.141 131.731C252.213 131.66 252.309 131.62 252.41 131.62H300.37C300.471 131.62 300.567 131.66 300.639 131.731C300.71 131.803 300.75 131.899 300.75 132V142.62C300.75 142.721 300.71 142.817 300.639 142.889C300.567 142.96 300.471 143 300.37 143H265.63C265.529 143 265.433 143.04 265.361 143.111C265.29 143.183 265.25 143.279 265.25 143.38Z" fill="white"/>
<path d="M307.92 132.39C307.919 132.283 307.939 132.176 307.979 132.077C308.019 131.978 308.078 131.887 308.154 131.811C308.229 131.734 308.319 131.674 308.418 131.633C308.517 131.591 308.623 131.57 308.73 131.57L335.52 131.48C342.742 131.456 349.679 134.338 354.804 139.491C359.929 144.644 362.823 151.647 362.85 158.96L362.89 169.38C362.903 173.003 362.211 176.593 360.854 179.945C359.497 183.297 357.5 186.345 354.979 188.915C352.458 191.486 349.461 193.528 346.16 194.926C342.859 196.323 339.318 197.048 335.74 197.06L308.95 197.15C308.737 197.15 308.532 197.066 308.381 196.916C308.229 196.767 308.143 196.563 308.14 196.35L307.92 132.39ZM321.31 143.36L321.17 185.5C321.17 185.606 321.212 185.708 321.287 185.783C321.362 185.858 321.464 185.9 321.57 185.9L334.3 185.95C338.227 185.963 342 184.367 344.786 181.512C347.573 178.658 349.146 174.78 349.16 170.73L349.2 158.33C349.207 156.325 348.83 154.337 348.092 152.482C347.354 150.627 346.269 148.94 344.898 147.517C343.528 146.095 341.898 144.964 340.104 144.191C338.31 143.418 336.385 143.016 334.44 143.01L321.72 142.96C321.667 142.959 321.613 142.968 321.564 142.988C321.514 143.007 321.469 143.036 321.431 143.074C321.392 143.111 321.362 143.155 321.341 143.205C321.321 143.254 321.31 143.307 321.31 143.36Z" fill="white"/>
<path d="M394.65 146.78L394.66 196.42C394.66 196.807 394.467 197 394.08 197H382.75C382.417 197 382.25 196.833 382.25 196.5V131.8C382.25 131.776 382.255 131.753 382.264 131.731C382.273 131.709 382.286 131.689 382.303 131.673C382.319 131.656 382.339 131.643 382.361 131.634C382.383 131.625 382.406 131.62 382.43 131.62H401.72C401.854 131.62 401.985 131.666 402.091 131.749C402.198 131.832 402.275 131.948 402.31 132.08L413.83 175.23C414.01 175.903 414.19 175.903 414.37 175.23L425.73 132.23C425.837 131.823 426.1 131.62 426.52 131.62L445.19 131.63C445.57 131.63 445.76 131.82 445.76 132.2V196.5C445.753 196.833 445.583 197 445.25 197H434.01C433.677 197 433.51 196.837 433.51 196.51V147.75C433.51 146.13 433.313 146.107 432.92 147.68L420.53 196.54C420.45 196.847 420.253 197 419.94 197H408.09C407.797 197 407.613 196.857 407.54 196.57L394.96 146.74C394.753 145.92 394.65 145.933 394.65 146.78Z" fill="white"/>
<path d="M496.536 182.16H470.716C470.653 182.16 470.592 182.179 470.54 182.215C470.488 182.251 470.449 182.301 470.426 182.36L465.146 196.96C465.124 197.019 465.084 197.069 465.032 197.105C464.981 197.141 464.919 197.16 464.856 197.16H451.456C451.407 197.158 451.359 197.145 451.315 197.121C451.272 197.097 451.235 197.063 451.208 197.022C451.181 196.981 451.163 196.934 451.158 196.885C451.152 196.836 451.159 196.786 451.176 196.74L476.496 131.97C476.519 131.911 476.558 131.861 476.61 131.825C476.662 131.789 476.723 131.77 476.786 131.77L490.426 131.79C490.488 131.789 490.549 131.807 490.6 131.841C490.652 131.875 490.692 131.923 490.716 131.98L516.766 196.73C516.786 196.777 516.794 196.829 516.789 196.88C516.784 196.932 516.766 196.981 516.737 197.023C516.709 197.066 516.67 197.101 516.624 197.125C516.579 197.149 516.528 197.161 516.476 197.16H502.696C502.633 197.16 502.572 197.141 502.52 197.105C502.468 197.069 502.429 197.019 502.406 196.96L496.826 182.36C496.804 182.301 496.764 182.251 496.712 182.215C496.661 182.179 496.599 182.16 496.536 182.16ZM474.656 170.72C474.637 170.77 474.63 170.825 474.636 170.878C474.642 170.932 474.661 170.983 474.692 171.027C474.722 171.072 474.763 171.108 474.811 171.133C474.859 171.158 474.912 171.17 474.966 171.17L492.076 171.14C492.13 171.14 492.183 171.128 492.231 171.103C492.279 171.078 492.32 171.042 492.351 170.997C492.381 170.953 492.4 170.902 492.407 170.848C492.413 170.795 492.406 170.74 492.386 170.69L483.786 148.59C483.761 148.53 483.719 148.478 483.665 148.442C483.61 148.405 483.547 148.386 483.481 148.386C483.416 148.386 483.352 148.405 483.298 148.442C483.243 148.478 483.201 148.53 483.176 148.59L474.656 170.72Z" fill="white"/>
<path d="M559.086 174.23L559.056 132.1C559.056 132.018 559.089 131.939 559.147 131.881C559.205 131.823 559.284 131.79 559.366 131.79H571.096C571.178 131.79 571.257 131.823 571.315 131.881C571.374 131.939 571.406 132.018 571.406 132.1V196.85C571.406 196.932 571.374 197.011 571.315 197.069C571.257 197.127 571.178 197.16 571.096 197.16H558.206C558.154 197.159 558.102 197.145 558.057 197.119C558.011 197.092 557.973 197.055 557.946 197.01L532.176 155.33C532.14 155.275 532.087 155.232 532.026 155.209C531.964 155.185 531.896 155.182 531.832 155.2C531.769 155.218 531.712 155.256 531.672 155.308C531.631 155.36 531.608 155.424 531.606 155.49L531.616 196.85C531.616 196.891 531.608 196.931 531.593 196.969C531.577 197.006 531.554 197.04 531.525 197.069C531.497 197.098 531.462 197.121 531.425 197.136C531.387 197.152 531.347 197.16 531.306 197.16H519.536C519.454 197.16 519.375 197.127 519.317 197.069C519.259 197.011 519.226 196.932 519.226 196.85V132.09C519.226 132.008 519.259 131.929 519.317 131.871C519.375 131.813 519.454 131.78 519.536 131.78L531.996 131.79C532.049 131.791 532.1 131.805 532.146 131.831C532.191 131.858 532.229 131.895 532.256 131.94L558.516 174.39C558.552 174.445 558.605 174.488 558.667 174.511C558.729 174.535 558.796 174.538 558.86 174.52C558.924 174.502 558.98 174.464 559.021 174.412C559.061 174.36 559.084 174.296 559.086 174.23Z" fill="white"/>
<path d="M594.866 143.16H576.206C576.116 143.16 576.03 143.124 575.966 143.06C575.902 142.997 575.866 142.91 575.866 142.82L575.876 132.12C575.876 132.03 575.912 131.943 575.976 131.88C576.04 131.816 576.126 131.78 576.216 131.78L627.556 131.79C627.646 131.79 627.733 131.826 627.797 131.89C627.86 131.953 627.896 132.04 627.896 132.13V142.82C627.896 142.91 627.86 142.997 627.797 143.06C627.733 143.124 627.646 143.16 627.556 143.16H608.906C608.862 143.16 608.817 143.169 608.776 143.186C608.735 143.203 608.697 143.228 608.666 143.26C608.634 143.291 608.609 143.329 608.592 143.37C608.575 143.411 608.566 143.455 608.566 143.5L608.576 196.82C608.576 196.91 608.54 196.997 608.477 197.06C608.413 197.124 608.326 197.16 608.236 197.16H595.536C595.446 197.16 595.36 197.124 595.296 197.06C595.232 196.997 595.196 196.91 595.196 196.82L595.206 143.5C595.206 143.41 595.17 143.323 595.107 143.26C595.043 143.196 594.956 143.16 594.866 143.16Z" fill="white"/>
<path d="M668.656 168.81C676.816 173.43 682.656 184.54 687.276 192.44C687.306 192.488 687.348 192.527 687.398 192.553C687.448 192.579 687.504 192.59 687.559 192.586C687.615 192.582 687.667 192.562 687.711 192.529C687.755 192.496 687.788 192.452 687.806 192.4L711.366 132.15C711.41 132.041 711.485 131.947 711.581 131.881C711.677 131.816 711.79 131.78 711.906 131.78L725.116 131.79C725.252 131.79 725.385 131.832 725.497 131.908C725.609 131.985 725.696 132.094 725.746 132.22L751.686 196.7C751.708 196.751 751.717 196.806 751.711 196.861C751.706 196.916 751.687 196.969 751.656 197.014C751.626 197.06 751.584 197.098 751.535 197.123C751.486 197.148 751.431 197.161 751.376 197.16H737.956C737.609 197.16 737.373 197 737.246 196.68L731.866 182.66C731.739 182.327 731.496 182.16 731.136 182.16H706.196C705.974 182.16 705.756 182.229 705.574 182.358C705.391 182.486 705.252 182.669 705.176 182.88L700.216 196.63C700.161 196.785 700.059 196.918 699.925 197.013C699.791 197.108 699.63 197.159 699.466 197.16H675.156C674.905 197.16 674.658 197.096 674.438 196.974C674.218 196.851 674.031 196.675 673.896 196.46C669.223 188.953 664.253 181.59 658.986 174.37C655.726 169.91 651.166 169.53 644.836 170.06C644.589 170.08 644.466 170.21 644.466 170.45L644.476 196.55C644.476 196.957 644.273 197.16 643.866 197.16H631.656C631.323 197.16 631.156 196.993 631.156 196.66V132.4C631.156 132.02 631.346 131.83 631.726 131.83C641.726 131.7 651.696 131.87 661.676 131.72C666.409 131.647 670.653 132.213 674.406 133.42C683.836 136.47 687.226 149.27 683.616 157.41C680.546 164.35 675.616 166.13 668.756 167.99C668.063 168.183 668.029 168.457 668.656 168.81ZM644.426 143.5L644.506 158.16C644.506 158.237 644.537 158.311 644.591 158.365C644.645 158.419 644.719 158.45 644.796 158.45L663.506 158.35C665.59 158.339 667.585 157.548 669.051 156.151C670.518 154.754 671.336 152.865 671.326 150.9V150.48C671.321 149.507 671.113 148.544 670.713 147.647C670.314 146.75 669.73 145.936 668.997 145.251C668.263 144.567 667.393 144.025 666.438 143.658C665.482 143.291 664.459 143.104 663.426 143.11L644.716 143.21C644.639 143.21 644.565 143.241 644.511 143.295C644.457 143.349 644.426 143.423 644.426 143.5ZM709.586 170.74C709.566 170.789 709.559 170.842 709.565 170.894C709.57 170.947 709.589 170.997 709.618 171.04C709.648 171.084 709.688 171.119 709.735 171.144C709.781 171.168 709.833 171.181 709.886 171.18L727.036 171.15C727.088 171.149 727.139 171.135 727.184 171.11C727.23 171.085 727.268 171.049 727.297 171.006C727.325 170.963 727.343 170.913 727.348 170.862C727.353 170.81 727.346 170.758 727.326 170.71L718.716 148.58C718.692 148.522 718.651 148.472 718.598 148.437C718.546 148.403 718.484 148.384 718.421 148.384C718.358 148.384 718.296 148.403 718.244 148.437C718.192 148.472 718.15 148.522 718.126 148.58L709.586 170.74Z" fill="white"/>
<path d="M203.71 143.34C203.71 143.302 203.717 143.264 203.732 143.229C203.747 143.194 203.768 143.162 203.795 143.135C203.822 143.108 203.854 143.087 203.889 143.072C203.924 143.058 203.962 143.05 204 143.05L222.7 142.95C223.726 142.944 224.743 143.123 225.693 143.475C226.642 143.827 227.507 144.346 228.236 145.003C228.964 145.659 229.544 146.441 229.941 147.301C230.338 148.162 230.545 149.086 230.55 150.02V151.02C230.56 152.905 229.746 154.717 228.289 156.058C226.832 157.399 224.851 158.159 222.78 158.17L204.08 158.27C204.003 158.27 203.929 158.239 203.875 158.185C203.82 158.131 203.79 158.057 203.79 157.98L203.71 143.34Z" fill="#535353"/>
<path d="M321.31 143.36C321.31 143.307 321.321 143.254 321.341 143.205C321.362 143.155 321.392 143.111 321.431 143.074C321.469 143.036 321.514 143.007 321.564 142.988C321.614 142.968 321.667 142.959 321.72 142.96L334.44 143.01C336.385 143.016 338.31 143.418 340.104 144.191C341.899 144.964 343.528 146.095 344.898 147.517C346.269 148.94 347.354 150.627 348.092 152.482C348.83 154.337 349.207 156.325 349.2 158.33L349.16 170.73C349.146 174.78 347.573 178.658 344.786 181.512C342 184.367 338.228 185.963 334.3 185.95L321.57 185.9C321.464 185.9 321.362 185.858 321.287 185.783C321.212 185.708 321.17 185.606 321.17 185.5L321.31 143.36Z" fill="#535353"/>
<path d="M644.426 143.5C644.426 143.423 644.457 143.349 644.511 143.295C644.565 143.241 644.639 143.21 644.716 143.21L663.426 143.11C664.459 143.104 665.482 143.291 666.438 143.658C667.393 144.025 668.263 144.567 668.997 145.251C669.73 145.936 670.314 146.75 670.713 147.647C671.113 148.544 671.321 149.507 671.326 150.48V150.9C671.336 152.865 670.518 154.754 669.051 156.151C667.585 157.548 665.59 158.339 663.506 158.35L644.796 158.45C644.719 158.45 644.645 158.419 644.591 158.365C644.537 158.311 644.506 158.237 644.506 158.16L644.426 143.5Z" fill="#1E1E1E"/>
<path d="M474.656 170.72L483.176 148.59C483.201 148.53 483.243 148.478 483.298 148.442C483.352 148.405 483.416 148.386 483.481 148.386C483.546 148.386 483.61 148.405 483.665 148.442C483.719 148.478 483.761 148.53 483.786 148.59L492.386 170.69C492.406 170.74 492.413 170.794 492.407 170.848C492.4 170.902 492.381 170.953 492.35 170.997C492.32 171.042 492.279 171.078 492.231 171.103C492.183 171.128 492.13 171.14 492.076 171.14L474.966 171.17C474.912 171.17 474.859 171.158 474.811 171.133C474.763 171.108 474.722 171.072 474.692 171.027C474.661 170.983 474.642 170.932 474.636 170.878C474.63 170.824 474.637 170.77 474.656 170.72Z" fill="#1E1E1E"/>
<path d="M709.586 170.74L718.126 148.58C718.151 148.522 718.192 148.472 718.244 148.437C718.297 148.403 718.358 148.384 718.421 148.384C718.484 148.384 718.546 148.403 718.598 148.437C718.651 148.472 718.692 148.522 718.716 148.58L727.326 170.71C727.346 170.758 727.353 170.81 727.348 170.862C727.343 170.913 727.325 170.963 727.297 171.006C727.268 171.049 727.23 171.085 727.184 171.11C727.139 171.135 727.088 171.149 727.036 171.15L709.886 171.18C709.833 171.181 709.781 171.168 709.735 171.144C709.688 171.119 709.648 171.084 709.618 171.04C709.589 170.997 709.57 170.947 709.565 170.894C709.559 170.842 709.566 170.789 709.586 170.74Z" fill="#1E1E1E"/>
</svg>
